# xmcd CD database file
#
# Track frame offsets:
#	150
#	13530
#	26665
#	36996
#	49463
#	59649
#	71235
#	83642
#	98336
#	110675
#	121269
#	134347
#	146334
#	159350
#	171954
#
# Disc length: 2455 seconds
#
# Revision: 0
# Processed by: cddbd v1.5.2PL0 Copyright (c) Steve Scherf et al.
# Submitted via: CDex 1.70beta2
#
DISCID=ce09950f
DTITLE=Various Artist - Lifetime of Country Romance: Treasure of Love [CD1]
DYEAR=2006
DGENRE=Country
TTITLE0=Hank Williams with His Drifting Cowboys/ Hey Good Lookin'
TTITLE1=Bobby Helms - Fraulein
TTITLE2=Jimmy C. Newman - A Fallen Star
TTITLE3=Patsy Cline - Crazy
TTITLE4=The Statler Brothers - Do You Know You Are My Sunshine
TTITLE5=Loretta Lynn - Before I'm Over You
TTITLE6=Hank Williams Jr. - Eleven Roses
TTITLE7=Merle Haggard - If We're Not Back in Love by Monday
TTITLE8=Roy Drusky - Three Hearts in a Tangle
TTITLE9=Don Williams - (Turn Out the Lights and) Love Me Tonight
TTITLE10=Freddy Fender - You'll Lose a Good Thing
TTITLE11=Kitty Wells - Heartbreak U.S.A.
TTITLE12=Loretta Lynn and Conway Twitty - Feelins'
TTITLE13=Bill Anderson and Jan Howard - For Loving You
TTITLE14=Jerry Wallace - If You Leave Me Tonight I'll Cry
EXTD=YEAR: 2006
EXTT0=
EXTT1=
EXTT2=
EXTT3=
EXTT4=
EXTT5=
EXTT6=
EXTT7=
EXTT8=
EXTT9=
EXTT10=
EXTT11=
EXTT12=
EXTT13=
EXTT14=
PLAYORDER=
